<svg xmlns="http://www.w3.org/2000/svg" xmlns:xlink="http://www.w3.org/1999/xlink" width="220" height="220" viewBox="0 0 220 220" fill="none"><path     fill="#243545"  d="M172 0C186.91 0 194.37 0 200.25 2.44Q200.976 2.74062 201.686 3.0765Q202.396 3.41238 203.089 3.7827Q203.782 4.15303 204.456 4.55691Q205.13 4.96079 205.783 5.39726Q206.436 5.83372 207.067 6.30171Q207.698 6.76971 208.306 7.26811Q208.913 7.7665 209.495 8.2941Q210.077 8.8217 210.633 9.37723Q211.188 9.93276 211.716 10.5149Q212.243 11.097 212.742 11.7043Q213.24 12.3116 213.708 12.9427Q214.176 13.5737 214.613 14.227Q215.049 14.8802 215.453 15.5541Q215.857 16.2279 216.227 16.9208Q216.598 17.6137 216.934 18.3239Q217.269 19.0342 217.57 19.76C220 25.63 220 33.09 220 48L220 172C220 186.91 220 194.37 217.56 200.25Q217.259 200.976 216.923 201.686Q216.588 202.396 216.217 203.089Q215.847 203.782 215.443 204.456Q215.039 205.13 214.603 205.783Q214.166 206.436 213.698 207.067Q213.23 207.698 212.732 208.306Q212.233 208.913 211.706 209.495Q211.178 210.077 210.623 210.633Q210.067 211.188 209.485 211.716Q208.903 212.243 208.296 212.742Q207.688 213.24 207.057 213.708Q206.426 214.176 205.773 214.613Q205.12 215.049 204.446 215.453Q203.772 215.857 203.079 216.227Q202.386 216.598 201.676 216.934Q200.966 217.269 200.24 217.57C194.37 220 186.91 220 172 220L48 220C33.09 220 25.63 220 19.75 217.56Q19.0242 217.259 18.3139 216.923Q17.6037 216.588 16.9108 216.217Q16.2179 215.847 15.5441 215.443Q14.8702 215.039 14.217 214.603Q13.5637 214.166 12.9327 213.698Q12.3016 213.23 11.6943 212.732Q11.087 212.233 10.5049 211.706Q9.92276 211.178 9.36723 210.623Q8.8117 210.067 8.2841 209.485Q7.7565 208.903 7.25811 208.296Q6.75971 207.688 6.29171 207.057Q5.82372 206.426 5.38726 205.773Q4.95079 205.12 4.54691 204.446Q4.14303 203.772 3.7727 203.079Q3.40238 202.386 3.0665 201.676Q2.73062 200.966 2.43 200.24C0 194.37 0 186.91 0 172L0 48C0 33.09 0 25.63 2.44 19.75Q2.74062 19.0242 3.0765 18.3139Q3.41238 17.6037 3.7827 16.9108Q4.15303 16.2179 4.55691 15.5441Q4.96079 14.8702 5.39726 14.217Q5.83372 13.5637 6.30171 12.9327Q6.76971 12.3016 7.26811 11.6943Q7.7665 11.087 8.2941 10.5049Q8.8217 9.92276 9.37723 9.36723Q9.93276 8.8117 10.5149 8.2841Q11.097 7.7565 11.7043 7.2581Q12.3116 6.75971 12.9427 6.29171Q13.5737 5.82372 14.227 5.38725Q14.8802 4.95079 15.5541 4.54691Q16.2279 4.14303 16.9208 3.7727Q17.6137 3.40238 18.3239 3.0665Q19.0342 2.73062 19.76 2.43C25.63 0 33.09 0 48 0L172 0Z"></path><g filter="url(#filter_4C83shLJth-eIU-_3xDtJ)"><path     fill="#FFFFFF"  d="M80.2057 68.5807L80.2057 142.396C80.2057 144.62 82.0312 146.481 84.1964 145.973C88.9549 144.857 92.5097 141.732 94.4461 136.744C96.3553 131.765 96.9993 126.024 97.9905 120.089C98.3056 118.202 99.9564 116.831 101.87 116.831L114.747 116.831C117.053 116.831 118.881 118.757 118.789 121.06C118.357 131.898 118.621 142.623 116.517 152.586C113.373 167.539 104.165 176.909 91.2715 178.201C79.476 179.384 67.5526 178.898 55.6895 178.916C51.6348 178.916 48.9191 176.395 49.0018 171.014C49.4005 152.971 48.6483 134.718 50.6794 116.923C52.9475 97.0301 61.0107 80.5331 73.6292 66.0027C75.9587 63.3202 80.2057 65.0279 80.2057 68.5807Z"></path></g><g filter="url(#filter_yWXBQGgDsgctWURhRxJ8d)"><path     fill="#FFFFFF"  d="M137.605 75.3208C129.128 76.5132 125.521 82.8643 123.027 99.1842C122.725 101.166 121.033 102.673 119.028 102.673L105.367 102.673C103.149 102.673 101.356 100.88 101.315 98.663C101.052 84.2783 99.4419 69.9918 107.219 57.2869C113.061 47.7468 120.764 41.7299 130.706 41.2671C141.595 40.757 152.499 41.1538 163.395 41.0499C167.558 41.0499 170.602 43.2507 170.602 48.1624C170.602 71.6065 172.967 95.3151 166.171 118.136C162.289 131.094 156.59 142.656 148.096 153.413C145.857 156.248 141.508 154.597 141.508 150.984L141.508 79.0423C141.508 76.8601 139.766 75.0168 137.605 75.3208Z"></path></g><defs><filter id="filter_4C83shLJth-eIU-_3xDtJ" x="44.919097900390625" y="61.32017517089844" width="77.96217346191406" height="123.78939819335938" filterUnits="userSpaceOnUse" color-interpolation-filters="sRGB"><feFlood flood-opacity="0" result="feFloodId_4C83shLJth-eIU-_3xDtJ"/><feColorMatrix in="SourceAlpha" type="matrix" values="0 0 0 0 0 0 0 0 0 0 0 0 0 0 0 0 0 0 127 0" result="hardAlpha_4C83shLJth-eIU-_3xDtJ"/><feOffset dx="0" dy="2"/><feGaussianBlur stdDeviation="2"/><feComposite in2="hardAlpha_4C83shLJth-eIU-_3xDtJ" operator="out"/><feColorMatrix type="matrix" values="0 0 0 0 1 0 0 0 0 1 0 0 0 0 1 0 0 0 0.3 0"/><feBlend mode="normal" in2="feFloodId_4C83shLJth-eIU-_3xDtJ" result="dropShadow_1_4C83shLJth-eIU-_3xDtJ"/><feBlend mode="normal" in="SourceGraphic" in2="dropShadow_1_4C83shLJth-eIU-_3xDtJ" result="shape_4C83shLJth-eIU-_3xDtJ"/></filter><filter id="filter_yWXBQGgDsgctWURhRxJ8d" x="96.42363739013672" y="38.9384765625" width="79.1490478515625" height="123.30984497070312" filterUnits="userSpaceOnUse" color-interpolation-filters="sRGB"><feFlood flood-opacity="0" result="feFloodId_yWXBQGgDsgctWURhRxJ8d"/><feColorMatrix in="SourceAlpha" type="matrix" values="0 0 0 0 0 0 0 0 0 0 0 0 0 0 0 0 0 0 127 0" result="hardAlpha_yWXBQGgDsgctWURhRxJ8d"/><feOffset dx="0" dy="2"/><feGaussianBlur stdDeviation="2"/><feComposite in2="hardAlpha_yWXBQGgDsgctWURhRxJ8d" operator="out"/><feColorMatrix type="matrix" values="0 0 0 0 1 0 0 0 0 1 0 0 0 0 1 0 0 0 0.3 0"/><feBlend mode="normal" in2="feFloodId_yWXBQGgDsgctWURhRxJ8d" result="dropShadow_1_yWXBQGgDsgctWURhRxJ8d"/><feBlend mode="normal" in="SourceGraphic" in2="dropShadow_1_yWXBQGgDsgctWURhRxJ8d" result="shape_yWXBQGgDsgctWURhRxJ8d"/></filter></defs></svg>